<svg xmlns="http://www.w3.org/2000/svg" viewBox="0 0 1598.24 425.96"><defs><style>.cls-1{fill:#1f65a6;}.cls-2{fill:#328ff8;}.cls-3{fill:#111;}.cls-4{fill:#76c3fc;}</style></defs><title>wave_logo_RGB</title><g id="Layer_2" data-name="Layer 2"><g id="Layer_1-2" data-name="Layer 1"><path class="cls-1" d="M38.37,337.25l2.38.76c28.53,9.17,59-5.53,67.73-32.67l32.28-105.56c8.72-27.14-7.48-56.85-36-66l-2.38-.77c-28.53-9.17-59,5.53-67.73,32.67L2.36,271.23C-6.36,298.37,9.84,328.08,38.37,337.25Z"/><path class="cls-2" d="M247.86,353.4c6.7-15.72,11.59-33.82,16.7-49.88,11.28-35.45,21.17-71.5,32-107.07q6.84-22.38,13.6-44.79c10-31-5.23-63.84-33.76-73L274,77.89c-28.45-9.15-59.83,8.59-69.88,39.42L143.27,320.2c-8.39,26.1-28.17,45.09-51.17,52.46a46.27,46.27,0,0,1-5.48,1.53,67.46,67.46,0,0,1-36.23-1.35L48,372.07c-1.89-.61-3.7-1.35-5.51-2.11,12.6,18.11,37.95,37.44,67.62,47.18,33,10.82,70.93,6,99.36-13.92C228,390.25,239.37,373.33,247.86,353.4Z"/><path class="cls-3" d="M925.73,136.27c-25.7-4.6-37.64,2.46-37.64,2.46-8.34,4.5-10,13.67-10,13.67L840.23,287.6l-1-2.78-2.78-7.67-4.21-11.58L827,251.06l-6-16.45-6.32-17.41-6.32-17.39-6-16.39L797.19,169,793,157.59l-2.72-7.48c-1.4-3.88-3.5-7.75-6.77-10.44-3.81-3.14-9.06-4.36-13.84-5.06a33,33,0,0,0-5.53-.37c-11.35.21-17.72,3.41-21.3,6a14.26,14.26,0,0,0-5,7.34l-43.6,137.19L653.83,152.4c-2.18-7.13-6.47-12.8-13.69-15.21a56.47,56.47,0,0,0-18.55-2.47,94.8,94.8,0,0,0-15.4,1.55s-21.32,2.95-14.16,24.19c.3,1,.62,1.94.93,2.91l2.22,6.87q1.67,5.13,3.32,10.27l4.25,13.1,5,15.38q2.78,8.53,5.54,17.08,3,9.12,5.92,18.23,3,9.4,6.1,18.82T631.4,282l5.94,18.3q2.77,8.58,5.57,17.18L648,333q2.16,6.65,4.31,13.29,1.71,5.25,3.41,10.5c1.49,4.6,2.49,9.5,6.39,12.75,5.49,4.57,13.54,6.1,20.41,6.86,3.13.34,6.27.51,9.42.55,10.35.14,23.61-.31,32.11-7.22,4.39-3.56,5.6-9.42,7.14-14.58l2.69-9,7.42-24.77,8.67-28.93,8.14-27.18,5.84-19.5,1.84-6.12c1,2.74,2,5.49,2.93,8.23l7.41,20.79q4.9,13.8,9.83,27.58l10.18,28.56c2.38,6.66,4.63,13.37,7,20,1.37,3.89,2.87,7.74,4.28,11.59,1.34,3.66,2.34,7.2,4.65,10.41,7.22,10,21.47,10.06,32.59,9.95,10-.1,25.7-1.27,31.23-11.27,1.85-3.35,2.64-7.46,3.81-11.1l2-6.2q2.39-7.51,4.75-15,5.94-18.95,11.84-37.91,6.69-21.5,13.35-43,6.47-20.85,12.9-41.71,5.26-17,10.5-34c1.65-5.35,3.17-10.76,5-16.06C947.05,139.22,925.73,136.27,925.73,136.27Z"/><path class="cls-3" d="M1035.8,184.48a56.91,56.91,0,0,0-23.76,7.37,67.64,67.64,0,0,0-10.41,7.35c-3.23,2.74-6,5.66-10.34,6.63-8,1.81-15.93-3-22.19-7.55-3.14-2.27-10.88-8.79-13.78-15a11.75,11.75,0,0,1,1.2-12.1c17.67-21.35,46.54-33.25,73.34-35.32,27.21-2.11,59.68-.73,83.16,14.57,18.15,11.84,26.77,35.69,27.39,64.41L1142,364.54a7.64,7.64,0,0,1-.72,3.16c-3.12,7.1-15.92,9.74-25.93,9.85s-22.87-2.24-26.13-9.25a7.6,7.6,0,0,1-.8-3.17l0-4.93a44.57,44.57,0,0,1-14.27,9.44c-9,4-23.58,6.19-39.32,6.36-26.07,0-55.58-6.77-70-20.27-15.14-13.18-23-30.51-23.22-51.42-.22-19.94,8.25-36.82,21.23-50.12,12.94-13.56,32.15-20.74,57-21.31l66.78-.75c.17-7.91,1.5-16.75-.31-24.48C1081.32,186,1054.41,183.08,1035.8,184.48Zm2.43,91.18c-17.34-.07-43.28,1.17-43.71,23.82-.43,23,30.25,26.76,47,26.57h2.21c19-.21,29.42-4.28,34.8-7.65,6-4.16,9.31-14.37,9.15-28.65l-.09-13.89Z"/><path class="cls-3" d="M1366.27,136c-1.17-.27-2.36-.48-3.54-.63-7.54-1-15-1.45-22.6-.16-9.79,1.66-16.29,7.82-19.3,17.21l-3.55,8.74-51.72,128.44-11.63-30.11-22.54-58.36c-4.07-10.55-8.34-21-12.34-31.6-3.9-10.32-7.36-21.62-16-29.07-10-8.67-24.3-6.75-36.34-4.47a20.61,20.61,0,0,0-10.53,5.19c-5.64,5.5-5.06,13.67-2.72,20.57,2.88,8.47,6.71,16.73,10,25l14.46,36.39,16.53,41.6,16.3,41q6.6,16.57,13.13,33.18,3.27,8.31,6.53,16.61c2,5.05,3.6,9.92,7.68,13.72,7.34,6.85,19,7.54,28.54,7.62s21.5-1.5,27.95-9.46c3.9-4.8,5.87-10.87,7.91-16.61,2.26-6.38,4.85-12.64,7.39-18.91l12.83-31.63,14.76-36.43,14.87-36.68,13.13-32.41,9.56-23.59c3.42-8.43,8.84-18.76,3.24-27.52C1375.53,139.4,1371,137.15,1366.27,136Z"/><path class="cls-3" d="M1490,377.77s51.62,2.28,86.5-25.31c2.54-2.09,10.33-8.46,14.77-14.07a11.9,11.9,0,0,0,.94-12.27c-3-6.24-11-12.67-14.2-14.91,0,0-7.85-6.16-17.58-7.94-4.83-.88-7.17.08-13.64,6.09-12.44,10.43-26.32,15.92-41.43,15.92s-40.6-5.39-49.85-14.49c-8.76-7.9-15.17-18.38-16-33.29,0,0,112.1,0,140.49,0,0,0,18.1-.53,18.17-20.57,0-8.9-.22-20.44-.33-21.87-.31-31.3-10.22-56.3-29.44-74.3-18.86-17.62-52-28.92-88-27-11.33.6-23,2.09-34.58,6.21a87.08,87.08,0,0,0-32.33,20.45c-9.41,9.25-17.19,22-23.12,37.79-5.9,15.47-8.9,35-8.9,58.13,0,24.08,3.78,44,10.25,59,6.27,15.91,14.62,28.52,24.93,37.57a83.23,83.23,0,0,0,16.66,10.76,121.74,121.74,0,0,0,56.65,14.1m-34-183.46c8.84-7.11,19.6-8.84,35.75-9.42,12.72-.45,29.6,4.78,37.58,12.63,7.37,7.49,11.94,19.49,13.08,33.84l-103.15-.14C1442,209.88,1447.71,201,1456.06,194.31Z"/><path class="cls-4" d="M405.45,353.23C403,360.06,366,456.56,248,416.06a53.35,53.35,0,0,0,32.33-35.66c3.85-13.48,37.84-125.67,37.84-125.67h.06L383.47,35.4c8.72-27.14,39.2-41.84,67.73-32.67l2.38.76c28.53,9.18,44.73,38.88,36,66L419.48,305.34S407.86,346.4,405.45,353.23Z"/></g></g></svg>